<svg version="1.1" viewBox="0.0 0.0 794.0761154855643 761.4803149606299" fill="none" stroke="none" stroke-linecap="square" stroke-miterlimit="10" xmlns:xlink="http://www.w3.org/1999/xlink" xmlns="http://www.w3.org/2000/svg"><clipPath id="p.0"><path d="m0 0l794.0761 0l0 761.4803l-794.0761 0l0 -761.4803z" clip-rule="nonzero"/></clipPath><g clip-path="url(#p.0)"><path fill="#000000" fill-opacity="0.0" d="m0 0l794.0761 0l0 761.4803l-794.0761 0z" fill-rule="evenodd"/><path fill="#ffffff" d="m21.076115 375.32547l0 0c0 -198.82253 161.17749 -360.0 360.0 -360.0l0 0c95.477936 0 187.04535 37.928463 254.55847 105.44156c67.51306 67.5131 105.44153 159.0805 105.44153 254.55844l0 0c0 198.82248 -161.17749 359.99997 -360.0 359.99997l0 0c-198.82251 0 -360.0 -161.17749 -360.0 -359.99997z" fill-rule="evenodd"/><path stroke="#000000" stroke-width="24.0" stroke-linejoin="round" stroke-linecap="butt" d="m21.076115 375.32547l0 0c0 -198.82253 161.17749 -360.0 360.0 -360.0l0 0c95.477936 0 187.04535 37.928463 254.55847 105.44156c67.51306 67.5131 105.44153 159.0805 105.44153 254.55844l0 0c0 198.82248 -161.17749 359.99997 -360.0 359.99997l0 0c-198.82251 0 -360.0 -161.17749 -360.0 -359.99997z" fill-rule="evenodd"/><path fill="#000000" d="m305.9109 191.68504l0 0c0 -41.51268 33.65268 -75.16536 75.165375 -75.16536l0 0c19.93509 0 39.05368 7.919182 53.149933 22.015427c14.096222 14.096237 22.015411 33.214844 22.015411 53.149933l0 0c0 41.51268 -33.65268 75.16536 -75.165344 75.16536l0 0c-41.512695 0 -75.165375 -33.65268 -75.165375 -75.16536z" fill-rule="evenodd"/><path stroke="#000000" stroke-width="1.0" stroke-linejoin="round" stroke-linecap="butt" d="m305.9109 191.68504l0 0c0 -41.51268 33.65268 -75.16536 75.165375 -75.16536l0 0c19.93509 0 39.05368 7.919182 53.149933 22.015427c14.096222 14.096237 22.015411 33.214844 22.015411 53.149933l0 0c0 41.51268 -33.65268 75.16536 -75.165344 75.16536l0 0c-41.512695 0 -75.165375 -33.65268 -75.165375 -75.16536z" fill-rule="evenodd"/><path fill="#000000" d="m664.5571 486.3612c-43.586853 118.76654 -156.6601 197.71051 -283.17215 197.70135c-126.512054 -0.009155273 -239.57388 -78.96948 -283.14352 -197.74234z" fill-rule="evenodd"/><path fill="#000000" d="m97.86404 487.65213l0 0c162.6583 -140.60916 403.79437 -140.7721 566.6425 -0.3828125z" fill-rule="evenodd"/><path fill="#000000" d="m385.71652 561.2126l-286.8976 -75.165344l286.8976 -75.165344z" fill-rule="evenodd"/><path fill="#000000" d="m375.95276 410.8819l286.89764 75.165344l-286.89764 75.165344z" fill-rule="evenodd"/></g></svg>