<svg version="1.1" viewBox="0.0 0.0 482.7165354330709 335.61679790026244" fill="none" stroke="none" stroke-linecap="square" stroke-miterlimit="10" xmlns:xlink="http://www.w3.org/1999/xlink" xmlns="http://www.w3.org/2000/svg"><clipPath id="p.0"><path d="m0 0l482.71652 0l0 335.6168l-482.71652 0l0 -335.6168z" clip-rule="nonzero"/></clipPath><g clip-path="url(#p.0)"><path fill="#000000" fill-opacity="0.0" d="m0 0l482.71652 0l0 335.6168l-482.71652 0z" fill-rule="evenodd"/><path fill="#333333" d="m0 42.23622l0 0c0 -23.326422 18.9098 -42.23622 42.23622 -42.23622l398.2362 0c11.201752 0 21.944702 4.449875 29.865509 12.370703c7.9208374 7.920828 12.370697 18.663776 12.370697 29.865519l0 0l0 0c0 23.326416 -18.90979 42.23622 -42.236206 42.23622l-398.2362 0c-23.326422 0 -42.23622 -18.909805 -42.23622 -42.23622z" fill-rule="evenodd"/><path fill="#333333" d="m0 166.45413l0 0c0 -23.326431 18.9098 -42.23623 42.23622 -42.23623l398.2362 0c11.201752 0 21.944702 4.4498825 29.865509 12.370705c7.9208374 7.920822 12.370697 18.663773 12.370697 29.865524l0 0l0 0c0 23.326416 -18.90979 42.236206 -42.236206 42.236206l-398.2362 0c-23.326422 0 -42.23622 -18.90979 -42.23622 -42.236206z" fill-rule="evenodd"/><path fill="#333333" d="m0 290.67203l0 0c0 -23.326416 18.9098 -42.23622 42.23622 -42.23622l398.2362 0c11.201752 0 21.944702 4.449875 29.865509 12.370712c7.9208374 7.920807 12.370697 18.663757 12.370697 29.865509l0 0l0 0c0 23.326416 -18.90979 42.236237 -42.236206 42.236237l-398.2362 0c-23.326422 0 -42.23622 -18.90982 -42.23622 -42.236237z" fill-rule="evenodd"/></g></svg>