<svg version="1.1" viewBox="0.0 0.0 553.5800524934383 526.4488188976378" fill="none" stroke="none" stroke-linecap="square" stroke-miterlimit="10" xmlns:xlink="http://www.w3.org/1999/xlink" xmlns="http://www.w3.org/2000/svg"><clipPath id="p.0"><path d="m0 0l553.5801 0l0 526.4488l-553.5801 0l0 -526.4488z" clip-rule="nonzero"/></clipPath><g clip-path="url(#p.0)"><path fill="#000000" fill-opacity="0.0" d="m0 0l553.5801 0l0 526.4488l-553.5801 0z" fill-rule="evenodd"/><path fill="#000000" fill-opacity="0.0" d="m0 -25.506561l993.92126 0l0 348.0l-993.92126 0z" fill-rule="evenodd"/><path fill="#5a3d85" d="m25.0 239.49344l0 -215.98438l47.734375 0l0 183.71875l49.59375 0l0 32.265625l-97.328125 0zm107.72243 0l40.796875 -215.98438l54.40625 0l40.26561 215.98438l-43.999985 0l-7.203125 -45.59375l-31.734375 0l-7.453125 45.59375l-45.078125 0zm56.796875 -74.125l22.9375 0l-11.46875 -84.265625l-11.46875 84.265625zm155.73174 77.328125q-20.265625 0 -33.875 -7.203125q-13.59375 -7.203125 -20.53125 -22.265625q-6.921875 -15.0625 -7.71875 -39.0625l40.796875 -6.140625q0.265625 13.875 2.53125 22.40625q2.265625 8.53125 6.390625 12.265625q4.140625 3.734375 10.015625 3.734375q7.453125 0 9.71875 -5.0625q2.28125 -5.078125 2.28125 -10.671875q0 -13.328125 -6.40625 -22.53125q-6.40625 -9.203125 -17.328125 -18.53125l-18.671875 -16.265625q-12.265625 -10.40625 -20.671875 -23.59375q-8.390625 -13.203125 -8.390625 -32.671875q0 -27.46875 16.265625 -42.0q16.265625 -14.53125 44.265625 -14.53125q17.328125 0 27.859375 5.875q10.53125 5.859375 16.0 15.328125q5.46875 9.453125 7.46875 20.0q2.0 10.53125 2.265625 20.125l-41.0625 5.0625q-0.265625 -9.59375 -1.203125 -16.65625q-0.9375 -7.078125 -3.875 -10.9375q-2.921875 -3.875 -9.0625 -3.875q-6.65625 0 -9.734375 5.609375q-3.0625 5.59375 -3.0625 11.203125q0 12.0 5.734375 19.59375q5.734375 7.59375 15.0625 15.859375l17.875 15.734375q14.125 12.0 23.859375 27.203125q9.734375 15.203125 9.734375 37.59375q0 15.203125 -6.9375 27.609375q-6.921875 12.390625 -19.59375 19.59375q-12.671875 7.203125 -30.0 7.203125zm67.19354 -3.203125l40.796875 -215.98438l54.40625 0l40.265625 215.98438l-44.0 0l-7.203125 -45.59375l-31.734375 0l-7.453125 45.59375l-45.078125 0zm56.796875 -74.125l22.9375 0l-11.46875 -84.265625l-11.46875 84.265625z" fill-rule="nonzero"/><path fill="#000000" fill-opacity="0.0" d="m0 202.25722l112.8189 0l0 348.47247l-112.8189 0z" fill-rule="evenodd"/><path fill="#edad3e" d="m100.46875 518.72595q-21.078125 0 -33.484375 -3.078125q-12.390625 -3.0625 -18.390625 -9.7343445q-6.0 -6.65625 -7.734375 -17.59375q-1.734375 -10.921875 -1.734375 -26.65625l0 -21.34375q0 -19.1875 -0.9375 -27.984375q-0.921875 -8.8125 -4.53125 -11.34375q-3.59375 -2.53125 -11.859375 -2.53125l0 -31.46875q8.265625 0 11.859375 -2.53125q3.609375 -2.53125 4.53125 -11.453125q0.9375 -8.9375 0.9375 -27.875l0 -21.328125q0 -16.0 1.734375 -26.9375q1.734375 -10.9375 7.734375 -17.59375q6.0 -6.6718903 18.390625 -9.73439q12.40625 -3.078125 33.484375 -3.078125l0 29.07814q-6.9375 0 -11.203125 1.0625q-4.265625 1.0625 -6.40625 4.140625q-2.125 3.0625 -2.9375 9.203125q-0.796875 6.125 -0.796875 16.25l0 24.0q0 22.671875 -4.53125 36.0q-4.53125 13.328125 -18.390625 16.53125q13.859375 3.203125 18.390625 16.40625q4.53125 13.1875 4.53125 35.859375l0 24.265625q0 10.140625 0.796875 16.125q0.8125 6.0 2.9375 9.0625q2.140625 3.078125 6.40625 4.140625q4.265625 1.078125 11.203125 1.078125l0 29.06247z" fill-rule="nonzero"/><path fill="#000000" fill-opacity="0.0" d="m91.96063 221.24672l375.84253 0l0 348.0l-375.84253 0z" fill-rule="evenodd"/><path fill="#edad3e" d="m178.82 489.44983q-24.53125 0 -38.796875 -8.9375q-14.265625 -8.9375 -20.140625 -25.0625q-5.859375 -16.140625 -5.859375 -38.0l0 -77.859375q0 -22.40625 5.859375 -38.53125q5.875 -16.140625 20.140625 -24.9375q14.265625 -8.796875 38.796875 -8.796875q24.0 0 37.46875 7.875q13.46875 7.859375 19.0625 22.0q5.609375 14.125 5.609375 32.515625l0 18.671875l-46.671875 0l0 -21.59375q0 -6.40625 -0.671875 -12.265625q-0.65625 -5.875 -3.859375 -9.734375q-3.203125 -3.875 -10.9375 -3.875q-7.46875 0 -11.0625 4.0q-3.59375 4.0 -4.53125 10.0q-0.9375 6.0 -0.9375 12.671875l0 101.59375q0 7.203125 1.203125 13.203125q1.203125 6.0 4.796875 9.59375q3.609375 3.59375 10.53125 3.59375q7.46875 0 10.671875 -3.859375q3.203125 -3.875 4.0 -10.0q0.796875 -6.140625 0.796875 -12.53125l0 -22.671875l46.671875 0l0 18.671875q0 18.390625 -5.46875 32.9375q-5.46875 14.53125 -18.9375 22.9375q-13.46875 8.390625 -37.734375 8.390625zm145.59616 0q-20.265625 0 -33.875 -7.203125q-13.59375 -7.203125 -20.53125 -22.265625q-6.921875 -15.0625 -7.71875 -39.0625l40.796875 -6.140625q0.265625 13.875 2.53125 22.40625q2.265625 8.53125 6.390625 12.265625q4.140625 3.734375 10.015625 3.734375q7.453125 0 9.71875 -5.0625q2.28125 -5.078125 2.28125 -10.671875q0 -13.328125 -6.40625 -22.53125q-6.40625 -9.203125 -17.328125 -18.53125l-18.671875 -16.265625q-12.265625 -10.40625 -20.671875 -23.59375q-8.390625 -13.203125 -8.390625 -32.671875q0 -27.46875 16.265625 -42.0q16.265625 -14.53125 44.265625 -14.53125q17.328125 0 27.859375 5.875q10.53125 5.859375 16.0 15.328125q5.46875 9.453125 7.46875 20.0q2.0 10.53125 2.265625 20.125l-41.0625 5.0625q-0.265625 -9.59375 -1.203125 -16.65625q-0.9375 -7.078125 -3.875 -10.9375q-2.921875 -3.875 -9.0625 -3.875q-6.65625 0 -9.734375 5.609375q-3.0625 5.59375 -3.0625 11.203125q0 12.0 5.734375 19.59375q5.734375 7.59375 15.0625 15.859375l17.875 15.734375q14.125 12.0 23.859375 27.203125q9.734375 15.203125 9.734375 37.59375q0 15.203125 -6.9375 27.609375q-6.921875 12.390625 -19.59375 19.59375q-12.671875 7.203125 -30.0 7.203125z" fill-rule="nonzero"/><path fill="#000000" fill-opacity="0.0" d="m375.02625 202.25722l112.81891 0l0 348.47247l-112.81891 0z" fill-rule="evenodd"/><path fill="#edad3e" d="m393.88562 518.72595l0 -29.06247q6.9375 0 11.203125 -1.078125q4.265625 -1.0625 6.390625 -4.140625q2.140625 -3.0625 2.9375 -9.0625q0.8125 -5.984375 0.8125 -16.125l0 -24.265625q0 -22.671875 4.65625 -35.859375q4.671875 -13.203125 18.53125 -16.40625q-13.859375 -3.203125 -18.53125 -16.53125q-4.65625 -13.328125 -4.65625 -36.0l0 -24.0q0 -10.125 -0.8125 -16.25q-0.796875 -6.140625 -2.9375 -9.203125q-2.125 -3.078125 -6.390625 -4.140625q-4.265625 -1.0625 -11.203125 -1.0625l0 -29.07814q21.078125 0 33.46875 3.078125q12.40625 3.0625 18.40625 9.73439q6.0 6.65625 7.734375 17.59375q1.734375 10.9375 1.734375 26.9375l0 21.328125q0 18.9375 0.921875 27.875q0.9375 8.921875 4.53125 11.453125q3.609375 2.53125 11.875 2.53125l0 31.46875q-8.265625 0 -11.875 2.53125q-3.59375 2.53125 -4.53125 11.34375q-0.921875 8.796875 -0.921875 27.984375l0 21.34375q0 15.734375 -1.734375 26.65625q-1.734375 10.9375 -7.734375 17.59375q-6.0 6.6718445 -18.40625 9.7343445q-12.390625 3.078125 -33.46875 3.078125z" fill-rule="nonzero"/></g></svg>