<svg version="1.1" viewBox="0.0 0.0 175.2755905511811 156.86876640419948" fill="none" stroke="none" stroke-linecap="square" stroke-miterlimit="10" xmlns:xlink="http://www.w3.org/1999/xlink" xmlns="http://www.w3.org/2000/svg"><clipPath id="p.0"><path d="m0 0l175.27559 0l0 156.86876l-175.27559 0l0 -156.86876z" clip-rule="nonzero"/></clipPath><g clip-path="url(#p.0)"><path fill="#000000" fill-opacity="0.0" d="m0 0l175.27559 0l0 156.86876l-175.27559 0z" fill-rule="evenodd"/><path fill="#d18b11" fill-opacity="0.1564" d="m76.12139 117.78262l48.92913 -84.66142l48.92914 84.72441z" fill-rule="evenodd"/><path fill="#d18b11" fill-opacity="0.1564" d="m39.158768 42.345814l0 0c0 -23.387302 18.959156 -42.346455 42.34646 -42.346455l0 0c11.23098 0 22.00196 4.4614887 29.943466 12.40299c7.941498 7.9415016 12.402992 18.712488 12.402992 29.943466l0 0c0 23.387302 -18.95916 42.346455 -42.34646 42.346455l0 0c-23.387302 0 -42.34646 -18.959152 -42.34646 -42.346455z" fill-rule="evenodd"/><path fill="#d18b11" fill-opacity="0.1564" d="m-8.2834647E-4 113.851776l21.204723 -42.416252l55.480316 -0.017852783l21.204727 42.40261l-21.204727 42.416245l-55.480316 0.017852783z" fill-rule="evenodd"/></g></svg>