<svg version="1.1" viewBox="0.0 0.0 1671.5616797900263 342.2230971128609" fill="none" stroke="none" stroke-linecap="square" stroke-miterlimit="10" xmlns:xlink="http://www.w3.org/1999/xlink" xmlns="http://www.w3.org/2000/svg"><clipPath id="p.0"><path d="m0 0l1671.5616 0l0 342.22308l-1671.5616 0l0 -342.22308z" clip-rule="nonzero"/></clipPath><g clip-path="url(#p.0)"><path fill="#000000" fill-opacity="0.0" d="m0 0l1671.5616 0l0 342.22308l-1671.5616 0z" fill-rule="evenodd"/><path fill="#000000" fill-opacity="0.0" d="m1117.3491 -0.001312336l709.98425 0l0 348.0l-709.98425 0z" fill-rule="evenodd"/><path fill="#ffffff" d="m1204.2085 268.2018q-24.265625 0 -38.40625 -8.53125q-14.125 -8.53125 -20.265625 -24.53125q-6.125 -16.0 -6.125 -38.140625l0 -80.265625q0 -22.390625 6.125 -38.125q6.140625 -15.734375 20.265625 -24.125q14.140625 -8.40625 38.40625 -8.40625q24.53125 0 38.796875 8.40625q14.265625 8.390625 20.390625 24.125q6.140625 15.734375 6.140625 38.125l0 80.265625q0 22.140625 -6.140625 38.140625q-6.125 16.0 -20.390625 24.53125q-14.265625 8.53125 -38.796875 8.53125zm0 -33.875q7.46875 0 10.9375 -3.71875q3.46875 -3.734375 4.53125 -9.59375q1.0625 -5.875 1.0625 -12.015625l0 -104.0q0 -6.390625 -1.0625 -12.125q-1.0625 -5.734375 -4.53125 -9.46875q-3.46875 -3.734375 -10.9375 -3.734375q-6.921875 0 -10.390625 3.734375q-3.46875 3.734375 -4.546875 9.46875q-1.0625 5.734375 -1.0625 12.125l0 104.0q0 6.140625 0.9375 12.015625q0.9375 5.859375 4.265625 9.59375q3.328125 3.71875 10.796875 3.71875zm91.99487 81.34375l0 -204.79688l43.46875 0l0 11.203125q7.734375 -6.9375 16.53125 -10.40625q8.796875 -3.46875 16.796875 -3.46875q8.8125 0 15.078125 3.46875q6.265625 3.46875 10.265625 9.734375q4.0 6.265625 5.859375 14.53125q1.875 8.265625 1.875 17.59375l0 66.40625q0 14.390625 -3.875 25.0625q-3.859375 10.671875 -11.328125 16.671875q-7.46875 6.0 -18.40625 6.0q-8.265625 0 -16.671875 -3.859375q-8.390625 -3.875 -16.125 -10.546875l0 62.40625l-43.46875 0zm54.9375 -76.0q4.265625 0 6.65625 -2.390625q2.40625 -2.40625 3.609375 -6.265625q1.203125 -3.875 1.203125 -8.6875l0 -71.984375q0 -4.53125 -1.078125 -8.125q-1.0625 -3.609375 -3.46875 -5.734375q-2.390625 -2.140625 -6.125 -2.140625q-3.46875 0 -6.53125 1.46875q-3.0625 1.453125 -5.734375 3.859375l0 96.0q2.9375 1.859375 5.734375 2.9375q2.796875 1.0625 5.734375 1.0625zm130.13013 28.0q-16.796875 0 -28.796875 -6.0q-12.0 -6.0 -18.40625 -17.59375q-6.390625 -11.609375 -6.390625 -27.875l0 -56.53125q0 -16.53125 6.390625 -28.0q6.40625 -11.46875 18.53125 -17.46875q12.140625 -6.0 28.671875 -6.0q17.0625 0 28.390625 5.875q11.34375 5.859375 17.078125 17.328125q5.734375 11.46875 5.734375 28.265625l0 30.9375l-61.875 0l0 29.59375q0 5.859375 1.328125 9.59375q1.34375 3.734375 3.734375 5.34375q2.40625 1.59375 5.609375 1.59375q3.203125 0 5.734375 -1.46875q2.53125 -1.46875 4.0 -4.65625q1.46875 -3.203125 1.46875 -8.8125l0 -16.265625l40.0 0l0 14.9375q0 23.46875 -13.609375 35.34375q-13.59375 11.859375 -37.59375 11.859375zm-10.671875 -97.328125l21.875 0l0 -15.46875q0 -6.140625 -1.46875 -9.59375q-1.46875 -3.46875 -4.0 -4.796875q-2.53125 -1.34375 -6.0 -1.34375q-3.203125 0 -5.46875 1.609375q-2.265625 1.59375 -3.609375 5.46875q-1.328125 3.859375 -1.328125 11.046875l0 13.078125zm85.593994 94.65625l0 -154.125l43.46875 0l0 15.46875q8.53125 -8.53125 17.734375 -13.328125q9.203125 -4.8125 19.328125 -4.8125q9.609375 0 15.875 4.671875q6.265625 4.671875 9.453125 12.8125q3.203125 8.125 3.203125 18.515625l0 120.796875l-43.1875 0l0 -114.65625q0 -5.609375 -1.875 -8.53125q-1.859375 -2.9375 -6.9375 -2.9375q-2.65625 0 -6.265625 1.46875q-3.59375 1.46875 -7.328125 4.125l0 120.53125l-43.46875 0z" fill-rule="nonzero"/><path fill="#000000" fill-opacity="0.0" d="m0 12.307087l743.9685 0l0 348.0l-743.9685 0z" fill-rule="evenodd"/><path fill="#ffffff" d="m87.390625 280.51022q-24.796875 0 -38.796875 -8.125q-14.0 -8.140625 -19.59375 -23.73439q-5.59375 -15.609375 -5.59375 -38.28125l0 -149.04688l47.1875 0l0 156.25q0 6.671875 1.0625 13.34375q1.078125 6.65625 4.671875 10.921875q3.609375 4.265625 11.0625 4.265625q7.734375 0 11.203125 -4.265625q3.46875 -4.265625 4.390625 -10.921875q0.9375 -6.671875 0.9375 -13.34375l0 -156.25l47.46875 0l0 149.04688q0 22.671875 -5.734375 38.28125q-5.734375 15.593765 -19.59375 23.73439q-13.859375 8.125 -38.671875 8.125zm94.66882 -3.203125l0 -215.98439l47.734375 0l0 215.98439l-47.734375 0zm79.99786 0l0 -215.98439l47.734375 0l0 183.71875l49.59375 0l0 32.26564l-97.328125 0zm112.26099 0l0 -41.062515l41.0625 0l0 41.062515l-41.0625 0zm88.26721 0l0 -180.53127l-32.53125 0l0 -35.45312l112.796875 0l0 35.45312l-32.265625 0l0 180.53127l-48.0 0zm85.05261 0l41.875 -116.26564l-40.0 -99.71875l45.0625 0l23.734375 58.39062l19.203125 -58.39062l39.734375 0l-37.875 112.25l42.140625 103.73439l-44.796875 0l-26.40625 -64.531265l-23.203125 64.531265l-39.46875 0z" fill-rule="nonzero"/><path fill="#000000" fill-opacity="0.0" d="m655.5722 -6.6824145l112.81885 0l0 348.47244l-112.81885 0z" fill-rule="evenodd"/><path fill="#edad3e" d="m756.04095 309.78635q-21.078125 0 -33.484375 -3.078125q-12.390625 -3.0625 -18.390625 -9.734375q-6.0 -6.65625 -7.734375 -17.59375q-1.734375 -10.921875 -1.734375 -26.656265l0 -21.34375q0 -19.1875 -0.9375 -27.984375q-0.921875 -8.8125 -4.53125 -11.34375q-3.59375 -2.53125 -11.859375 -2.53125l0 -31.46875q8.265625 0 11.859375 -2.53125q3.609375 -2.53125 4.53125 -11.453125q0.9375 -8.9375 0.9375 -27.874992l0 -21.328125q0 -16.0 1.734375 -26.9375q1.734375 -10.937504 7.734375 -17.593754q6.0 -6.671875 18.390625 -9.734375q12.40625 -3.078125 33.484375 -3.078125l0 29.078129q-6.9375 0 -11.203125 1.0625q-4.265625 1.0625 -6.40625 4.140625q-2.125 3.0625 -2.9375 9.203125q-0.796875 6.125 -0.796875 16.25l0 24.0q0 22.671867 -4.53125 35.999992q-4.53125 13.328125 -18.390625 16.53125q13.859375 3.203125 18.390625 16.40625q4.53125 13.1875 4.53125 35.859375l0 24.265625q0 10.14064 0.796875 16.125015q0.8125 6.0 2.9375 9.0625q2.140625 3.078125 6.40625 4.140625q4.265625 1.078125 11.203125 1.078125l0 29.0625z" fill-rule="nonzero"/><path fill="#000000" fill-opacity="0.0" d="m741.5066 12.307087l375.84253 0l0 348.0l-375.84253 0z" fill-rule="evenodd"/><path fill="#ffffff" d="m828.36597 280.51022q-24.53125 0 -38.796875 -8.9375q-14.265625 -8.9375 -20.140625 -25.062515q-5.859375 -16.140625 -5.859375 -38.0l0 -77.859375q0 -22.40625 5.859375 -38.53125q5.875 -16.140625 20.140625 -24.9375q14.265625 -8.796871 38.796875 -8.796871q24.0 0 37.46875 7.874996q13.46875 7.859375 19.0625 22.0q5.609375 14.125 5.609375 32.515625l0 18.671875l-46.671875 0l0 -21.59375q0 -6.40625 -0.671875 -12.265625q-0.65625 -5.875 -3.859375 -9.734375q-3.203125 -3.875 -10.9375 -3.875q-7.46875 0 -11.0625 4.0q-3.59375 4.0 -4.53125 10.0q-0.9375 6.0 -0.9375 12.671875l0 101.59375q0 7.203125 1.203125 13.203125q1.203125 6.0 4.796875 9.59375q3.609375 3.59375 10.53125 3.59375q7.46875 0 10.671875 -3.859375q3.203125 -3.875 4.0 -10.0q0.796875 -6.140625 0.796875 -12.53125l0 -22.671875l46.671875 0l0 18.671875q0 18.390625 -5.46875 32.9375q-5.46875 14.531265 -18.9375 22.937515q-13.46875 8.390625 -37.734375 8.390625zm145.59613 0q-20.265625 0 -33.875 -7.203125q-13.59375 -7.203125 -20.53125 -22.26564q-6.921875 -15.0625 -7.71875 -39.0625l40.796875 -6.140625q0.265625 13.875 2.53125 22.40625q2.265625 8.53125 6.390625 12.265625q4.140625 3.734375 10.015625 3.734375q7.453125 0 9.71875 -5.0625q2.28125 -5.078125 2.28125 -10.671875q0 -13.328125 -6.40625 -22.53125q-6.40625 -9.203125 -17.328125 -18.53125l-18.671875 -16.265625q-12.265625 -10.40625 -20.671875 -23.59375q-8.390625 -13.203125 -8.390625 -32.671875q0 -27.46875 16.265625 -42.0q16.265625 -14.531246 44.265625 -14.531246q17.328125 0 27.859375 5.874996q10.53125 5.859375 16.0 15.328125q5.46875 9.453125 7.46875 20.0q2.000061 10.53125 2.265686 20.125l-41.06256 5.0625q-0.265625 -9.59375 -1.203125 -16.65625q-0.9375 -7.078125 -3.875 -10.9375q-2.921875 -3.875 -9.0625 -3.875q-6.65625 0 -9.734375 5.609375q-3.0625 5.59375 -3.0625 11.203125q0 12.0 5.734375 19.59375q5.734375 7.59375 15.0625 15.859375l17.875 15.734375q14.125 12.0 23.859375 27.203125q9.734436 15.203125 9.734436 37.59375q0 15.203125 -6.937561 27.609375q-6.921875 12.39064 -19.59375 19.593765q-12.671875 7.203125 -30.0 7.203125z" fill-rule="nonzero"/><path fill="#000000" fill-opacity="0.0" d="m1011.4173 -6.6824145l112.81891 0l0 348.47244l-112.81891 0z" fill-rule="evenodd"/><path fill="#edad3e" d="m1030.2767 309.78635l0 -29.0625q6.9375 0 11.203125 -1.078125q4.265625 -1.0625 6.390625 -4.140625q2.140625 -3.0625 2.9375 -9.0625q0.8125 -5.984375 0.8125 -16.125015l0 -24.265625q0 -22.671875 4.65625 -35.859375q4.671875 -13.203125 18.53125 -16.40625q-13.859375 -3.203125 -18.53125 -16.53125q-4.65625 -13.328125 -4.65625 -35.999992l0 -24.0q0 -10.125 -0.8125 -16.25q-0.796875 -6.140625 -2.9375 -9.203125q-2.125 -3.078125 -6.390625 -4.140625q-4.265625 -1.0625 -11.203125 -1.0625l0 -29.078129q21.078125 0 33.46875 3.078125q12.40625 3.0625 18.40625 9.734375q6.0 6.65625 7.734375 17.593754q1.734375 10.9375 1.734375 26.9375l0 21.328125q0 18.937492 0.921875 27.874992q0.9375 8.921875 4.53125 11.453125q3.609375 2.53125 11.875 2.53125l0 31.46875q-8.265625 0 -11.875 2.53125q-3.59375 2.53125 -4.53125 11.34375q-0.921875 8.796875 -0.921875 27.984375l0 21.34375q0 15.73439 -1.734375 26.656265q-1.734375 10.9375 -7.734375 17.59375q-6.0 6.671875 -18.40625 9.734375q-12.390625 3.078125 -33.46875 3.078125z" fill-rule="nonzero"/></g></svg>